HIERARCHY
ROOT Hips
{
	OFFSET	0.00	0.00	0.00
	CHANNELS 6 Xposition Yposition Zposition Zrotation Xrotation Yrotation
	JOINT LeftUpLeg
	{
		OFFSET	 0.126116	-0.065224	 0.014019
		CHANNELS 3 Zrotation Xrotation Yrotation
		JOINT LeftLeg
		{
			OFFSET	 0.000000	 0.569914	 0.000000
			CHANNELS 3 Zrotation Xrotation Yrotation
			JOINT LeftFoot
			{
				OFFSET	 0.000000	 0.544423	 0.000000
				CHANNELS 3 Zrotation Xrotation Yrotation
				JOINT LeftToeBase
				{
					OFFSET	 0.000000	 0.207117	 0.000000
					CHANNELS 3 Zrotation Xrotation Yrotation
					End Site
					{
						OFFSET	 0.000000	 0.207117	 0.000000
					}
				}
			}
		}
	}
	JOINT RightUpLeg
	{
		OFFSET	-0.124023	-0.065224	 0.008373
		CHANNELS 3 Zrotation Xrotation Yrotation
		JOINT RightLeg
		{
			OFFSET	 0.000000	 0.570047	 0.000000
			CHANNELS 3 Zrotation Xrotation Yrotation
			JOINT RightFoot
			{
				OFFSET	 0.000000	 0.544354	 0.000000
				CHANNELS 3 Zrotation Xrotation Yrotation
				JOINT RightToeBase
				{
					OFFSET	 0.000000	 0.207540	 0.000000
					CHANNELS 3 Zrotation Xrotation Yrotation
					End Site
					{
						OFFSET	 0.000000	 0.207540	 0.000000
					}
				}
			}
		}
	}
	JOINT Spine
	{
		OFFSET	 0.000184	 0.117403	 0.007763
		CHANNELS 3 Zrotation Xrotation Yrotation
		JOINT Spine1
		{
			OFFSET	 0.000000	 0.137269	 0.000000
			CHANNELS 3 Zrotation Xrotation Yrotation
			JOINT Spine2
			{
				OFFSET	 0.000000	 0.156879	 0.000000
				CHANNELS 3 Zrotation Xrotation Yrotation
				JOINT LeftShoulder
				{
					OFFSET	 0.080501	 0.160143	 0.002496
					CHANNELS 3 Zrotation Xrotation Yrotation
					JOINT LeftArm
					{
						OFFSET	 0.000000	 0.164363	 0.000000
						CHANNELS 3 Zrotation Xrotation Yrotation
						JOINT LeftForeArm
						{
							OFFSET	 0.000000	 0.364576	 0.000000
							CHANNELS 3 Zrotation Xrotation Yrotation
							JOINT LeftHand
							{
								OFFSET	 0.000000	 0.360812	 0.000000
								CHANNELS 3 Zrotation Xrotation Yrotation
								JOINT LeftHandIndex1
								{
									OFFSET	 0.000000	 0.086006	 0.000000
									CHANNELS 3 Zrotation Xrotation Yrotation
									JOINT LeftHandIndex2
									{
										OFFSET	 0.000000	 0.047237	 0.000000
										CHANNELS 3 Zrotation Xrotation Yrotation
										JOINT LeftHandIndex3
										{
											OFFSET	-0.004284	 0.038165	 0.000551
											CHANNELS 3 Zrotation Xrotation Yrotation
											End Site
											{
												OFFSET	-0.004284	 0.038165	 0.000551
											}
										}
									}
								}
							}
						}
					}
				}
				JOINT Neck
				{
					OFFSET	 0.000000	 0.176489	 0.000000
					CHANNELS 3 Zrotation Xrotation Yrotation
					JOINT Head
					{
						OFFSET	 0.000000	 0.077941	 0.001747
						CHANNELS 3 Zrotation Xrotation Yrotation
						End Site
						{
							OFFSET	 0.000000	 0.077941	 0.001747
						}
					}
				}
				JOINT RightShoulder
				{
					OFFSET	-0.080363	 0.159706	-0.000306
					CHANNELS 3 Zrotation Xrotation Yrotation
					JOINT RightArm
					{
						OFFSET	 0.000000	 0.164196	 0.000000
						CHANNELS 3 Zrotation Xrotation Yrotation
						JOINT RightForeArm
						{
							OFFSET	 0.000000	 0.365611	 0.000000
							CHANNELS 3 Zrotation Xrotation Yrotation
							JOINT RightHand
							{
								OFFSET	 0.000000	 0.360648	 0.000000
								CHANNELS 3 Zrotation Xrotation Yrotation
								JOINT RightHandIndex1
								{
									OFFSET	 0.000000	 0.069977	 0.000000
									CHANNELS 3 Zrotation Xrotation Yrotation
									JOINT RightHandIndex2
									{
										OFFSET	 0.000000	 0.052305	 0.000000
										CHANNELS 3 Zrotation Xrotation Yrotation
										JOINT RightHandIndex3
										{
											OFFSET	 0.009002	 0.042196	 0.000782
											CHANNELS 3 Zrotation Xrotation Yrotation
											End Site
											{
												OFFSET	 0.009002	 0.042196	 0.000782
											}
										}
									}
								}
							}
						}
					}
				}
			}
		}
	}
}
MOTION
Frames:    6
Frame Time: 0.03333334
-0.016031	 1.255843	 0.115275	 4.320111	 0.253928	 174.009800	-170.547700	 15.714310	 6.643382	 2.347596	-23.954390	 1.073892	 45.533780	 46.332240	-62.338430	 4.912823	 28.009650	-6.307259	-173.410400	 5.254805	-0.901202	-1.778550	-19.805070	 1.869951	-57.421660	 58.521930	 64.240520	-0.375444	 31.170380	 1.631998	 1.233083	 4.326035	-2.226854	 8.221811	 5.793636	-1.180062	-6.539260	-3.045954	 6.691793	-112.572800	 3.140160	 88.315800	-4.522222	 50.959510	 30.300200	 21.838570	-1.123698	 0.785092	-21.472030	-16.778260	-55.130770	-8.025439	 12.502670	-5.831190	-7.228703	 12.665640	 2.804234	 4.963066	-4.014628	-0.346955	 1.528192	-13.929950	 1.347994	-1.968209	 8.668060	-26.626770	 109.137600	 0.665482	-88.590520	-10.729760	 61.299190	 10.505210	-6.984166	-0.644664	 41.384540	-29.037490	-7.525731	-61.247920	 2.021950	 8.325932	 8.960834	 15.202860	 20.243160	-6.342599	-8.239867	-2.131385	 0.447455
-0.016139	 1.256082	 0.115099	 4.287270	 0.211820	 174.091000	-170.557900	 15.827600	 6.459295	 2.357257	-24.041610	 1.111839	 45.489320	 46.279040	-62.273820	 4.912825	 28.009670	-6.307247	-173.484700	 5.380006	-0.590764	-1.793924	-19.962570	 1.780286	-57.501960	 58.469710	 64.385420	-0.382470	 31.178970	 1.638966	 1.282576	 4.315464	-2.962928	 8.105893	 5.694408	-1.167867	-6.410009	-2.953821	 6.647437	-112.532800	 3.090114	 88.308910	-4.587284	 50.964600	 30.233750	 22.235510	-1.126587	 0.455370	-22.084340	-17.343610	-54.943220	-7.979414	 12.540410	-5.842584	-7.228912	 12.656890	 2.803038	 4.963066	-4.014628	-0.346955	 1.486959	-13.867300	 1.369071	-1.950385	 8.846956	-26.759360	 109.087600	 0.703637	-88.609890	-9.565798	 61.408000	 9.635837	-8.289702	-0.919513	 41.581420	-28.965420	-8.143291	-61.369750	 1.982339	 8.219087	 8.959881	 15.203020	 20.266860	-6.349084	-8.239867	-2.131385	 0.447455
-0.016339	 1.256179	 0.114763	 4.231121	 0.140051	 174.229600	-170.610000	 16.020710	 6.306292	 2.375762	-24.208760	 1.176768	 45.489060	 46.228090	-62.259110	 4.912829	 28.009690	-6.307226	-173.590500	 5.597338	-0.200441	-1.822084	-20.250670	 1.629762	-57.716700	 58.407990	 64.701540	-0.394479	 31.193630	 1.650876	 1.367150	 4.296947	-4.213947	 7.905210	 5.527734	-1.142981	-6.188728	-2.797869	 6.570474	-112.464600	 3.004640	 88.297230	-4.610586	 51.034420	 30.058400	 22.765800	-1.124261	-0.110608	-23.040040	-18.362650	-54.631590	-7.900748	 12.604850	-5.862125	-7.229270	 12.641930	 2.800996	 4.963066	-4.014628	-0.346955	 1.416479	-13.760280	 1.405178	-1.918726	 9.152480	-26.986320	 109.002300	 0.768843	-88.642910	-8.310527	 61.523160	 8.790947	-9.768718	-1.317434	 41.922530	-29.172540	-9.012807	-61.479320	 1.914680	 8.036529	 8.958082	 15.203290	 20.307360	-6.360168	-8.239867	-2.131385	 0.447455
-0.016654	 1.256055	 0.114214	 4.154356	 0.041051	 174.419100	-170.708300	 16.292590	 6.208469	 2.404865	-24.470570	 1.265919	 45.550060	 46.195060	-62.318150	 4.912835	 28.009730	-6.307199	-173.723800	 5.904953	 0.239202	-1.864133	-20.678630	 1.428838	-58.074400	 58.352380	 65.196640	-0.410920	 31.213710	 1.667181	 1.483039	 4.269327	-5.910326	 7.625521	 5.306251	-1.100733	-5.885179	-2.588241	 6.462644	-112.371200	 2.887656	 88.281460	-4.591189	 51.163510	 29.782250	 23.389840	-1.116161	-0.886429	-24.240430	-19.814020	-54.211400	-7.793031	 12.693000	-5.889020	-7.229759	 12.621460	 2.798202	 4.963066	-4.014628	-0.346955	 1.319975	-13.613910	 1.454779	-1.872962	 9.570107	-27.298300	 108.885700	 0.858162	-88.687920	-7.092190	 61.635370	 8.069595	-11.252790	-1.807345	 42.391120	-29.703660	-10.058750	-61.553880	 1.822130	 7.786710	 8.955268	 15.203690	 20.362770	-6.375339	-8.239867	-2.131385	 0.447455
-0.017127	 1.255644	 0.113355	 4.055427	-0.087063	 174.663100	-170.859600	 16.656490	 6.167988	 2.448080	-24.857320	 1.381207	 45.686860	 46.191120	-62.470980	 4.912843	 28.009770	-6.307164	-173.891400	 6.314301	 0.736861	-1.923245	-21.276280	 1.178094	-58.594960	 58.314110	 65.898320	-0.432131	 31.239590	 1.688217	 1.632013	 4.230681	-8.067707	 7.257218	 5.031006	-1.033787	-5.492893	-2.323971	 6.319417	-112.250900	 2.736797	 88.261350	-4.537472	 51.345050	 29.404770	 24.114860	-1.101942	-1.886229	-25.636980	-21.752250	-53.674030	-7.654036	 12.806570	-5.923960	-7.230392	 12.595070	 2.794600	 4.963066	-4.014628	-0.346955	 1.195444	-13.425310	 1.519060	-1.809768	 10.107830	-27.702630	 108.735400	 0.973434	-88.745660	-5.885849	 61.749650	 7.455965	-12.736060	-2.390565	 42.993550	-30.591340	-11.277760	-61.584800	 1.702858	 7.464602	 8.951041	 15.204210	 20.434220	-6.394907	-8.239867	-2.131385	 0.447455
-0.017771	 1.254920	 0.112150	 3.938934	-0.239629	 174.950200	-171.061000	 17.101490	 6.188399	 2.505680	-25.369110	 1.517209	 45.903080	 46.224630	-62.724610	 4.912852	 28.009820	-6.307122	-174.090800	 6.809214	 1.272166	-1.998256	-22.027770	 0.893774	-59.260470	 58.302750	 66.783160	-0.457167	 31.270090	 1.713046	 1.806206	 4.179444	-10.561870	 6.812852	 4.720820	-0.938728	-5.029382	-2.021344	 6.144505	-112.109100	 2.558818	 88.238080	-4.454660	 51.561910	 28.943890	 24.899050	-1.081972	-3.061863	-27.074560	-24.108160	-53.039200	-7.489953	 12.940390	-5.965546	-7.231141	 12.563950	 2.790352	 4.963066	-4.014628	-0.346955	 1.048432	-13.203070	 1.595342	-1.729216	 10.740650	-28.182790	 108.558300	 1.109590	-88.813390	-4.716406	 61.865660	 6.950673	-14.145200	-3.033602	 43.697720	-31.790720	-12.594920	-61.563060	 1.562275	 7.084743	 8.945193	 15.204870	 20.518460	-6.417996	-8.239867	-2.131385	 0.447455
